<?xml version="1.0" encoding="utf-8"?>
<!-- Generator: Adobe Illustrator 16.0.0, SVG Export Plug-In . SVG Version: 6.00 Build 0)  -->
<!DOCTYPE svg PUBLIC "-//W3C//DTD SVG 1.1//EN" "http://www.w3.org/Graphics/SVG/1.1/DTD/svg11.dtd">
<svg version="1.1" id="图层_1" xmlns="http://www.w3.org/2000/svg" xmlns:xlink="http://www.w3.org/1999/xlink" x="0px" y="0px"
	 width="1417.32px" height="850.39px" viewBox="0 0 1417.32 850.39" enable-background="new 0 0 1417.32 850.39"
	 xml:space="preserve">
<path fill="#57A2D7" d="M1415.669,579.553c0-78.302-33.695-151.92-94.88-207.287c-61.185-55.369-142.533-85.864-229.059-85.864
	c-12.871,0-25.626,0.692-38.218,2.023c-15.3-68.622-52.466-131.705-108.415-182.336C870.064,38.186,770.305,0.79,664.19,0.79
	c-106.114,0-205.875,37.396-280.909,105.299c-75.033,67.902-116.356,158.182-116.356,254.21c0,8.131,0.306,16.221,0.895,24.262
	C120.94,386.519,2.117,495.231,2.117,628.608c0,98.888,65.319,184.229,158.96,222.55l1054.716-0.663l45.817-21.251
	c21.228-11.868,41.09-26.037,59.179-42.405C1381.972,731.472,1415.669,657.855,1415.669,579.553z M1199.818,784.163H161.077
	c0,0-93.822-70.977-85.662-155.555c0-98.018,88.118-177.761,196.432-177.761c33.255,0,64.598,7.525,92.081,20.781
	c-0.158-0.352-0.308-0.706-0.463-1.058c0.24,0.115,0.485,0.221,0.725,0.337c-15.431-34.151-23.964-71.493-23.964-110.609
	c0-161.659,145.332-293.176,323.967-293.176c157.19,0,288.567,101.843,317.854,236.438c-0.031,0.01-0.063,0.019-0.093,0.029
	c3.882,18.143,5.942,36.874,5.942,56.044c0,4.577-0.134,9.127-0.361,13.652c31.749-13.186,67.04-20.552,104.2-20.552
	c138.202,0,250.638,101.75,250.638,226.818C1342.37,669.613,1284.062,747.572,1199.818,784.163z"/>
</svg>
