<?xml version="1.0" encoding="utf-8"?>
<!DOCTYPE svg PUBLIC "-//W3C//DTD SVG 1.1//EN" "http://www.w3.org/Graphics/SVG/1.1/DTD/svg11.dtd">
<svg version="1.1" id="图形" xmlns="http://www.w3.org/2000/svg" xmlns:xlink="http://www.w3.org/1999/xlink" x="0px" y="0px" width="1025px" height="1024px" viewBox="0 0 1025 1024" enable-background="new 0 0 1025 1024" xml:space="preserve">
  <path fill="#56abe4" d="M0-126.666c0-47.146 38.186-85.334 85.334-85.334l853.334 0c47.146 0 85.334 38.186 85.334 85.334l-0.002 234.666c0 47.146-38.186 85.334-85.334 85.334l-256 0 0 224c0 29.44-23.894 53.334-53.334 53.334s-53.332-23.894-53.332-53.334l0-224-490.666 0c-47.146 0-85.334-38.186-85.334-85.334l0-234.666zM106.666-9.334c0 29.44 23.894 53.334 53.334 53.334s53.334-23.894 53.334-53.334-23.894-53.332-53.334-53.332-53.334 23.892-53.334 53.332zM298.666-9.334c0 29.44 23.894 53.334 53.334 53.334s53.334-23.894 53.334-53.334-23.894-53.332-53.334-53.332-53.334 23.892-53.334 53.332zM629.334 641.334c-123.734 0-224-100.268-224-224 0-29.44 23.894-53.334 53.334-53.334s53.334 23.894 53.334 53.334c0 64.854 52.48 117.334 117.334 117.334s117.334-52.48 117.334-117.334c0-29.44 23.894-53.334 53.334-53.334s53.334 23.894 53.334 53.334c-0.004 123.732-100.272 224-224.004 224zM629.334 812c-218.028 0-394.668-176.64-394.668-394.666 0-29.44 23.894-53.334 53.334-53.334s53.334 23.894 53.334 53.334c0 159.146 128.852 288 288 288s288-128.854 288-288c0-29.44 23.894-53.334 53.334-53.334s53.334 23.894 53.334 53.334c-0.002 218.026-176.62 394.666-394.668 394.666z" transform="translate(0, 812) scale(1, -1)"/>
</svg>
