<?xml version="1.0" encoding="utf-8"?>
<!DOCTYPE svg PUBLIC "-//W3C//DTD SVG 1.1//EN" "http://www.w3.org/Graphics/SVG/1.1/DTD/svg11.dtd">
<svg style="width:308px;height:308px;" version="1.1" id="图形" xmlns="http://www.w3.org/2000/svg" xmlns:xlink="http://www.w3.org/1999/xlink" x="0px" y="0px" width="1024px" height="1024px" viewBox="0 0 1024 1024" enable-background="new 0 0 1024 1024" xml:space="preserve">
  <path class="svgpath" data-index="path_0" fill="#56abe4" d="M302.997007 720.975499l-59.69906 0 0 29.848819 59.69906 0 0 89.581248-59.69906 0 0-89.581248-29.867438 0 0 119.430066L332.847048 870.254384 332.847048 661.278885l-29.849018 0L302.99803 720.975499zM482.13205 780.689509l-89.549101 0 0 29.867238 89.549101 0 0 29.848819-89.549101 0 0-29.848819-29.868462 0 0 59.697637 149.283978 0 0-119.430066-29.867438 0L482.131027 780.689509zM392.582949 720.975499l0 29.848819 89.549101 0 0-29.848819L392.582949 720.975499zM392.582949 601.545432c11.589418 0 22.432814-20.590967 29.849018-29.848819l59.69906-89.544409-59.69906-59.733453-59.71748 89.582271L243.297947 512.001023c-21.475984 0-29.858228 20.300348-29.858228 42.422182 0 22.140253 8.382245 47.12325 29.858228 47.12325L392.582949 601.546456zM780.701029 512 631.416028 512 422.431967 213.443253c-7.361966-1.020236-18.168523 0-29.849018 0l-119.43496 0 0-59.715033-119.43496 119.411647 119.43496 89.582271 0-59.715033 117.357563-0.01842L571.716968 571.696614c7.397784 9.457396 18.223783 29.848819 29.849018 29.848819l170.13265 0c21.429933 0 38.868809-18.185174 38.868809-40.672328C810.568468 538.368554 802.131986 512 780.701029 512zM601.565986 661.278885 571.716968 661.278885l0 59.696614-29.850042 0 0 29.848819 29.850042 0 0 119.430066 29.849018 0 0-119.430066 29.850042 0 0-29.848819-29.850042 0L601.565986 661.278885zM870.285948 64.164369 153.713029 64.164369c-49.466602 0-89.567521 40.089044-89.567521 89.562828l0 716.526163c0 49.473785 40.10092 89.581248 89.567521 89.581248l716.572919 0c49.457392 0 89.566498-40.107463 89.566498-89.581248L959.852446 153.72822C959.853469 104.254435 919.743339 64.164369 870.285948 64.164369zM903.872233 875.866195c0 15.452947-12.518618 27.990494-27.991641 27.990494L148.118385 903.856689c-15.461767 0-27.990618-12.537548-27.990618-27.990494L120.127767 148.133805c0-15.452947 12.528851-27.989471 27.990618-27.989471l727.762207 0c15.472 0 27.991641 12.536524 27.991641 27.989471L903.872233 875.866195zM750.850988 213.443253l-119.43496 0c-11.681519 0-39.034591 12.500709-46.396557 21.794375l-73.019982 67.769476 59.71748 59.715033 59.69906-59.715033 119.43496 0 0 59.715033 119.43496-89.582271-119.43496-119.411647L750.850988 213.443253zM691.151928 720.975499l0 29.848819 89.549101 0 0-29.848819L691.151928 720.975499zM780.701029 780.689509 691.151928 780.689509l0 29.867238 89.549101 0 0 29.848819L691.151928 840.405565l0-29.848819-29.868462 0 0 59.697637 149.283978 0 0-119.430066-29.867438 0L780.700006 780.689509z" />

</svg>
